HIERARCHY
ROOT reference
{
  OFFSET 0 0 0
  CHANNELS 6 Xposition Yposition Zposition Zrotation Xrotation Yrotation
  JOINT Hips
  {
    OFFSET 36.5526 53.5468 140.525
    CHANNELS 6 Xposition Yposition Zposition Zrotation Xrotation Yrotation
    JOINT Spine
    {
      OFFSET 0 7.3847 0
      CHANNELS 6 Xposition Yposition Zposition Zrotation Xrotation Yrotation
      JOINT Spine1
      {
        OFFSET 0 22.52 0
        CHANNELS 6 Xposition Yposition Zposition Zrotation Xrotation Yrotation
        JOINT Neck
        {
          OFFSET 0 22.4276 2.03887
          CHANNELS 6 Xposition Yposition Zposition Zrotation Xrotation Yrotation
          JOINT Head
          {
            OFFSET 0 12.608 -1.80115
            CHANNELS 6 Xposition Yposition Zposition Zrotation Xrotation Yrotation
            End Site
            {
              OFFSET 0 22.5143 0
            }
          }
        }
        JOINT LeftShoulder
        {
          OFFSET 3.70204 19.5563 -0.329131
          CHANNELS 6 Xposition Yposition Zposition Zrotation Xrotation Yrotation
          JOINT LeftArm
          {
            OFFSET 13.7086 0 0
            CHANNELS 6 Xposition Yposition Zposition Zrotation Xrotation Yrotation
            JOINT LeftForeArm
            {
              OFFSET 25.9307 0 0
              CHANNELS 6 Xposition Yposition Zposition Zrotation Xrotation Yrotation
              JOINT LeftHand
              {
                OFFSET 23.5097 0 0
                CHANNELS 6 Xposition Yposition Zposition Zrotation Xrotation Yrotation
                End Site
                {
                  OFFSET 13.5086 0 0
                }
              }
            }
          }
        }
        JOINT RightShoulder
        {
          OFFSET -3.48695 19.5563 -0.329131
          CHANNELS 6 Xposition Yposition Zposition Zrotation Xrotation Yrotation
          JOINT RightArm
          {
            OFFSET -13.7086 0 0
            CHANNELS 6 Xposition Yposition Zposition Zrotation Xrotation Yrotation
            JOINT RightForeArm
            {
              OFFSET -25.9307 0 0
              CHANNELS 6 Xposition Yposition Zposition Zrotation Xrotation Yrotation
              JOINT RightHand
              {
                OFFSET -23.5097 0 0
                CHANNELS 6 Xposition Yposition Zposition Zrotation Xrotation Yrotation
                End Site
                {
                  OFFSET -13.5086 0 0
                }
              }
            }
          }
        }
      }
    }
    JOINT LeftUpLeg
    {
      OFFSET 9.00574 0 0
      CHANNELS 6 Xposition Yposition Zposition Zrotation Xrotation Yrotation
      JOINT LeftLeg
      {
        OFFSET 0 -37.3387 0
        CHANNELS 6 Xposition Yposition Zposition Zrotation Xrotation Yrotation
        JOINT LeftFoot
        {
          OFFSET 0 -36.155 0
          CHANNELS 6 Xposition Yposition Zposition Zrotation Xrotation Yrotation
          JOINT LeftToeBase
          {
            OFFSET 0 -5.85373 13.5086
            CHANNELS 6 Xposition Yposition Zposition Zrotation Xrotation Yrotation
            End Site
            {
              OFFSET 0 0 3.60229
            }
          }
        }
      }
    }
    JOINT RightUpLeg
    {
      OFFSET -9.00574 0 0
      CHANNELS 6 Xposition Yposition Zposition Zrotation Xrotation Yrotation
      JOINT RightLeg
      {
        OFFSET 0 -37.3387 0
        CHANNELS 6 Xposition Yposition Zposition Zrotation Xrotation Yrotation
        JOINT RightFoot
        {
          OFFSET 0 -36.155 0
          CHANNELS 6 Xposition Yposition Zposition Zrotation Xrotation Yrotation
          JOINT RightToeBase
          {
            OFFSET 0 -5.85373 13.5086
            CHANNELS 6 Xposition Yposition Zposition Zrotation Xrotation Yrotation
            End Site
            {
              OFFSET 0 0 3.60229
            }
          }
        }
      }
    }
  }
}
MOTION
Frames:	4
Frame Time:	0.004
0 0 0 0 0 -0 0.936065 75.5886 -177.751 -0.130405 2.1426 2.75045 0 7.3847 0 -0.955628 -5.23947 0.42655 1.77636e-015 22.52 0 0.093133 -3.32388 0.473107 0 22.4276 2.03887 7.14993 26.4047 0.910928 0 12.608 -1.80115 -5.72554 -1.46619 0.776038 3.70204 19.5563 -0.329131 21.4645 -1.52019 -3.09378 13.7086 0 -2.84217e-014 -26.0664 -1.46623 2.6909 25.9307 0 0 4.14385 -1.97914 1.59432 23.5097 0 -2.84217e-014 1.30681 -2.04184 -0.443648 -3.48695 19.5563 -0.329131 -15.0609 -2.57661 -1.07458 -13.7086 0 -2.84217e-014 17.2306 -0.109184 4.01306 -25.9307 0 2.84217e-014 -2.27028 2.39669 1.41692 -23.5097 0 0 -1.80535 2.428 -0.204994 9.00574 0 0 -1.80891 -8.86378 0.558758 0 -37.3387 0 -1.78442 16.7757 8.23062 0 -36.155 0 1.86725 -10.4728 -2.5057 0 -5.85373 13.5086 -3.10601e-018 1.2424e-017 3.18055e-015 -9.00574 -1.42109e-014 0 -1.2123 -4.27322 2.66003 -1.77636e-015 -37.3387 -2.84217e-014 9.08092 12.9302 -2.46296 8.88178e-016 -36.155 -2.84217e-014 -8.17657 -10.9952 -19.604 -7.10543e-015 -5.85373 13.5086 1.75878e-016 -3.72721e-017 -0 
0 0 0 0 0 -0 0.936065 75.5886 -177.738 -0.130876 2.15239 2.75047 0 7.3847 0 -0.955628 -5.23947 0.42655 0 22.52 0 0.093133 -3.32388 0.473107 0 22.4276 2.03887 7.1644 26.4065 0.910943 0 12.608 -1.80115 -5.74209 -1.469 0.776038 3.70204 19.5563 -0.329131 21.4637 -1.52015 -3.1216 13.7086 2.84217e-014 0 -26.0577 -1.47519 2.71072 25.9307 0 0 4.13716 -1.96552 1.57658 23.5097 0 0 1.30784 -2.02723 -0.417747 -3.48695 19.5563 -0.329131 -15.0609 -2.57661 -1.07458 -13.7086 0 0 17.2241 -0.109184 4.01306 -25.9307 2.84217e-014 2.84217e-014 -2.25413 2.40837 1.43404 -23.5097 0 0 -1.86728 2.44129 -0.289866 9.00574 1.42109e-014 0 -1.81225 -8.86378 0.56383 0 -37.3387 0 -1.77353 16.7765 8.21057 0 -36.155 0 1.86913 -10.4729 -2.49534 0 -5.85373 13.5086 1.86361e-017 -2.48481e-017 1.59028e-015 -9.00574 0 0 -1.2123 -4.27322 2.66003 -1.77636e-015 -37.3387 0 9.08062 12.9465 -2.45858 -8.88178e-016 -36.155 0 -8.21722 -10.9952 -19.604 -1.42109e-014 -5.85373 13.5086 1.3977e-016 -8.07563e-017 3.18055e-015 
0 0 0 0 0 -0 0.936065 75.5886 -177.733 -0.131105 2.15717 2.75047 -1.77636e-015 7.3847 0 -0.955628 -5.23947 0.42655 0 22.52 -2.84217e-014 0.093133 -3.32388 0.473107 0 22.4276 2.03887 7.17264 26.3793 0.919812 0 12.608 -1.80115 -5.75502 -1.44007 0.776029 3.70204 19.5563 -0.329131 21.464 -1.52016 -3.11322 13.7086 0 0 -26.0495 -1.4929 2.69526 25.9307 0 -2.84217e-014 4.12749 -1.95179 1.56294 23.5097 -2.84217e-014 0 1.30892 -2.01242 -0.378112 -3.48695 19.5563 -0.329131 -15.0609 -2.57661 -1.07458 -13.7086 0 2.84217e-014 17.2216 -0.114044 4.01306 -25.9307 0 -2.84217e-014 -2.25628 2.39963 1.43954 -23.5097 -2.84217e-014 2.84217e-014 -1.85034 2.43293 -0.306969 9.00574 0 0 -1.80161 -8.8638 0.547086 0 -37.3387 2.84217e-014 -1.7916 16.7763 8.21677 0 -36.155 0 1.86984 -10.4875 -2.48803 0 -5.85373 13.5086 6.89673e-034 2.48481e-017 -1.59028e-015 -9.00574 0 0 -1.2123 -4.27322 2.66003 3.55271e-015 -37.3387 0 9.07814 12.9527 -2.44639 -8.88178e-016 -36.155 0 -8.22263 -10.9955 -19.5995 0 -5.85373 13.5086 -4.19311e-017 -9.31803e-017 -1.59028e-015 
0 0 0 0 0 -0 0.931983 75.5886 -177.726 -0.131239 2.15944 2.75114 1.77636e-015 7.3847 2.84217e-014 -0.955628 -5.23947 0.42655 -1.77636e-015 22.52 0 0.093133 -3.32388 0.473107 0 22.4276 2.03887 7.1692 26.3683 0.923787 0 12.608 -1.80115 -5.75623 -1.42965 0.776025 3.70204 19.5563 -0.329131 21.4608 -1.52016 -3.11607 13.7086 -2.84217e-014 2.84217e-014 -26.0401 -1.49185 2.69512 25.9307 -2.84217e-014 0 4.12247 -1.95311 1.56196 23.5097 -2.84217e-014 0 1.33016 -2.01381 -0.388692 -3.48695 19.5563 -0.329131 -15.0603 -2.57907 -1.07458 -13.7086 0 0 17.2129 -0.137048 4.01306 -25.9307 0 0 -2.24446 2.41005 1.44566 -23.5097 2.84217e-014 0 -1.83979 2.44338 -0.313626 9.00574 0 2.84217e-014 -1.80167 -8.86377 0.565117 0 -37.3387 -2.84217e-014 -1.77956 16.7782 8.16838 0 -36.155 0 1.87571 -10.4888 -2.45552 0 -5.85373 13.5086 3.41661e-017 -2.48481e-017 3.18055e-015 -9.00574 1.42109e-014 0 -1.21513 -4.27281 2.6662 -1.77636e-015 -37.3387 -2.84217e-014 9.08394 12.9525 -2.47228 1.77636e-015 -36.155 0 -8.21761 -11.002 -19.5873 0 -5.85373 13.5086 2.95071e-016 7.45443e-017 -4.77083e-015 
